# xmcd
#
# Track frame offsets:
#	150
#	15070
#	30240
#	43380
#	58000
#	69655
#	83105
#	96930
#	110490
#	120350
#	130830
#	146645
#	162240
#	173430
#	185710
#	203280
#	216430
#	229585
#	245535
#	256555
#	271695
#	286940
#	301280
#	314460
#	327820
#
# Disc length: 4566 seconds
#
# Revision: 0
# Processed by: cddbd v1.5.1PL0 Copyright (c) Steve Scherf et al.
# Submitted via: audiograbber 1.83.01
#
DISCID=4d11d419
DTITLE=George Jones - I Am What I Am
DYEAR=1900
DGENRE=Country
TTITLE0=He Stopped Loving Her Today
TTITLE1=I've Aged 20 Years
TTITLE2=Brother To The Blues
TTITLE3=If Drinkin' Don't Kill Me
TTITLE4=His Lovin' Her
TTITLE5=I'm Not Ready Yet
TTITLE6=I'm The One She Missed Him With Today
TTITLE7=Good Hearted Woman
TTITLE8=A Hard Act To Follow
TTITLE9=Bone Dry
TTITLE10=Radio Lover
TTITLE11=Dream On
TTITLE12=Hello Trouble
TTITLE13=Burning Bridges
TTITLE14=Wino The Clown
TTITLE15=You Must Have Walked Across My Mind
TTITLE16=I'd Rather Die Young
TTITLE17=The Girl At The End Of The Bar
TTITLE18=One Of These Days
TTITLE19=Famous Last Words
TTITLE20=Shine On
TTITLE21=She Hung The Moon
TTITLE22=I'd Rather Have What We Had
TTITLE23=Tennessee Whiskey
TTITLE24=Almost Persuaded
EXTD=
EXTT0=
EXTT1=
EXTT2=
EXTT3=
EXTT4=
EXTT5=
EXTT6=
EXTT7=
EXTT8=
EXTT9=
EXTT10=
EXTT11=
EXTT12=
EXTT13=
EXTT14=
EXTT15=
EXTT16=
EXTT17=
EXTT18=
EXTT19=
EXTT20=
EXTT21=
EXTT22=
EXTT23=
EXTT24=
PLAYORDER=
